<svg id="Layer_1" data-name="Layer 1" xmlns="http://www.w3.org/2000/svg" viewBox="0 0 21.04 23.77"><defs><style>.cls-1{fill:#f4a525;}</style></defs><path class="cls-1" d="M19.48,21.59a11.88,11.88,0,0,0,3.7-5.2c-1.59-2-8.31-10.34-9.86-12.27-.16,1.83-1.78,5.7-4.58,7a19.19,19.19,0,0,1-3,1.16l9.58,11.6A18.22,18.22,0,0,0,19.48,21.59Z" transform="translate(-5.48 -4.12)"/><path class="cls-1" d="M26,22.31a31.49,31.49,0,0,1-5.06,2.44c-2.12.77-4.67,1.64-5.49,1.88v1.25L26,24.09Z" transform="translate(-5.48 -4.12)"/><polygon class="cls-1" points="0 8.52 0 12.01 9.52 23.74 9.52 20.05 0 8.52"/><path class="cls-1" d="M25.54,21.11a26.9,26.9,0,0,1-4.48,2.78,51.06,51.06,0,0,1-5.66,2.05v.28c.9-.27,3.19-1,5.2-1.72A39.86,39.86,0,0,0,26,21.65Z" transform="translate(-5.48 -4.12)"/><path class="cls-1" d="M23.62,16.3l0,.1a12,12,0,0,1-3.86,5.5,18.65,18.65,0,0,1-4.33,2.34v.53a21.69,21.69,0,0,0,5.08-2.43A22.88,22.88,0,0,0,26,16.85h0C24.54,15.23,16.52,6.05,16,5.39a1.54,1.54,0,0,1-.59.7c2.66,3.32,7,8.74,8.14,10.13Z" transform="translate(-5.48 -4.12)"/><path class="cls-1" d="M25.2,18.53a43.67,43.67,0,0,1-4.5,4.13,20.85,20.85,0,0,1-5.3,2.5v.36l.8-.25a41.81,41.81,0,0,0,4.68-1.73,23.33,23.33,0,0,0,5.6-3.77l0,0Z" transform="translate(-5.48 -4.12)"/></svg>