<svg xmlns="http://www.w3.org/2000/svg" version="1.1" xmlns:xlink="http://www.w3.org/1999/xlink" xmlns:svgjs="http://svgjs.dev/svgjs" width="2000" height="1500" viewBox="0 0 2000 1500"><rect width="2000" height="1500" fill="#ffffff"></rect><g transform="matrix(0.75,0,0,0.75,249.090909090909,600.799495384501)"><svg viewBox="0 0 396 79" data-background-color="#ffffff" preserveAspectRatio="xMidYMid meet" height="398" width="2000" xmlns="http://www.w3.org/2000/svg" xmlns:xlink="http://www.w3.org/1999/xlink"><g id="tight-bounds" transform="matrix(1,0,0,1,0.2400000000000091,-0.013099280990218176)"><svg viewBox="0 0 395.52 79.02619856198045" height="79.02619856198045" width="395.52"><g><svg viewBox="0 0 395.52 79.02619856198045" height="79.02619856198045" width="395.52"><g><svg viewBox="0 0 395.52 79.02619856198045" height="79.02619856198045" width="395.52"><g><svg viewBox="0 0 395.52 79.02619856198045" height="79.02619856198045" width="395.52"><g><svg viewBox="0 0 395.52 49.48704091341579" height="49.48704091341579" width="395.52"><g transform="matrix(1,0,0,1,0,0)"><svg width="395.52" viewBox="2.8 -38.6 309.93 39.45" height="49.48704091341579" data-palette-color="#2b2b2b"><g class="undefined-text-0" data-fill-palette-color="primary" id="text-0"><path d="M20.9 0.85Q15.05 0.85 10.98-1.73 6.9-4.3 4.85-8.78 2.8-13.25 2.8-18.9L2.8-18.9Q2.8-24.45 4.85-28.9 6.9-33.35 10.98-35.98 15.05-38.6 20.9-38.6L20.9-38.6Q26.7-38.6 30.75-35.98 34.8-33.35 36.88-28.88 38.95-24.4 38.95-18.9L38.95-18.9Q38.95-13.25 36.9-8.78 34.85-4.3 30.78-1.73 26.7 0.85 20.9 0.85L20.9 0.85ZM20.9-3.4Q25-3.4 27.95-5.45 30.9-7.5 32.43-11.05 33.95-14.6 33.95-19.05L33.95-19.05Q33.95-23.35 32.4-26.83 30.85-30.3 27.9-32.33 24.95-34.35 20.9-34.35L20.9-34.35Q16.7-34.35 13.75-32.3 10.8-30.25 9.3-26.75 7.8-23.25 7.8-18.9L7.8-18.9Q7.8-14.45 9.3-10.95 10.8-7.45 13.75-5.43 16.7-3.4 20.9-3.4L20.9-3.4ZM60.4-37.9Q72.8-37.9 72.8-26.6L72.8-26.6Q72.8-21.1 69.7-18.23 66.6-15.35 60.4-15.35L60.4-15.35 52-15.35 52 0 47.15 0 47.15-37.9 60.4-37.9ZM67.85-26.6Q67.85-30.3 66-31.98 64.15-33.65 60.4-33.65L60.4-33.65 52-33.65 52-19.65 60.4-19.65Q67.8-19.65 67.85-26.6L67.85-26.6ZM85-4.2L103.35-4.2 103.35 0 80.15 0 80.15-37.9 103.1-37.9 103.1-33.7 85-33.7 85-21.15 100.6-21.15 100.6-16.95 85-16.95 85-4.2ZM135.64-37.9L140.49-37.9 140.49 0 135.19 0 116.54-29.75 116.54 0 111.69 0 111.69-37.9 116.94-37.9 135.64-8.15 135.64-37.9Z" fill="#2b2b2b" data-fill-palette-color="primary"></path><path d="M167.79 0L158.04-16.05 150.69-16.05 150.69 0 145.84 0 145.84-37.9 159.09-37.9Q171.49-37.9 171.49-26.9L171.49-26.9Q171.49-22.55 169.42-19.88 167.34-17.2 163.19-16.4L163.19-16.4 173.34 0 167.79 0ZM150.69-33.65L150.69-20.3 159.09-20.3Q166.49-20.3 166.54-26.9L166.54-26.9Q166.54-30.4 164.69-32.02 162.84-33.65 159.09-33.65L159.09-33.65 150.69-33.65ZM185.99-4.2L204.34-4.2 204.34 0 181.14 0 181.14-37.9 204.09-37.9 204.09-33.7 185.99-33.7 185.99-21.15 201.59-21.15 201.59-16.95 185.99-16.95 185.99-4.2ZM237.64 0L233.54-11.05 217.74-11.05 213.69 0 208.69 0 222.94-38.35 228.34-38.35 242.64 0 237.64 0ZM219.39-15.4L231.89-15.4 225.64-32.3 219.39-15.4ZM261.88-37.9Q271.23-37.9 276.01-33.08 280.78-28.25 280.78-18.9L280.78-18.9Q280.78-9.5 276.03-4.75 271.28 0 261.88 0L261.88 0 249.28 0 249.28-37.9 261.88-37.9ZM275.78-19.05Q275.78-26.55 272.28-30.1 268.78-33.65 261.88-33.65L261.88-33.65 254.13-33.65 254.13-4.25 261.88-4.25Q268.83-4.25 272.31-7.8 275.78-11.35 275.78-19.05L275.78-19.05ZM299.83 0.85Q292.58 0.85 286.88-1.85L286.88-1.85 286.88-6.45Q292.63-3.4 299.83-3.4L299.83-3.4Q303.98-3.4 305.91-5.15 307.83-6.9 307.83-9.75L307.83-9.75Q307.83-12.45 306.06-13.8 304.28-15.15 300.83-16.15L300.83-16.15 297.43-17.1Q294.53-17.95 292.48-19.05 290.43-20.15 289.06-22.23 287.68-24.3 287.68-27.65L287.68-27.65Q287.68-33 290.81-35.8 293.93-38.6 299.68-38.6L299.68-38.6Q303.03-38.6 305.58-37.98 308.13-37.35 310.88-36.1L310.88-36.1 310.88-31.6Q305.78-34.35 299.68-34.35L299.68-34.35Q295.98-34.35 294.28-32.63 292.58-30.9 292.58-27.9L292.58-27.9Q292.63-25.15 294.26-23.85 295.88-22.55 299.33-21.55L299.33-21.55 302.78-20.6Q305.83-19.75 307.96-18.63 310.08-17.5 311.41-15.38 312.73-13.25 312.73-9.85L312.73-9.85Q312.68-4.9 309.26-2.02 305.83 0.85 299.83 0.85L299.83 0.85Z" fill="#f4a424" data-fill-palette-color="secondary"></path></g></svg></g></svg></g><g transform="matrix(1,0,0,1,163.310208,61.169743584091336)"><svg viewBox="0 0 232.209792 17.85645497788912" height="17.85645497788912" width="232.209792"><g transform="matrix(1,0,0,1,0,0)"><svg width="232.209792" viewBox="0.57 -31.38 527.5899999999999 40.58" height="17.85645497788912" data-palette-color="#f4a424"><path d="M10.8-28.1L2.24-28.1Q1.38-28.1 0.98-28.62 0.57-29.14 0.57-29.74 0.57-30.34 0.98-30.86 1.38-31.38 2.24-31.38L2.24-31.38 23.22-31.38Q24.02-31.38 24.43-30.86 24.83-30.34 24.83-29.74 24.83-29.14 24.4-28.62 23.97-28.1 23.22-28.1L23.22-28.1 14.71-28.1 14.71-1.9Q14.71-0.57 13.56-0.11L13.56-0.11Q13.22 0 12.64 0 12.07 0 11.44-0.46 10.8-0.92 10.8-1.9L10.8-1.9 10.8-28.1ZM32.24-20.11L32.24-18.16Q33.62-22.24 38.27-22.24L38.27-22.24Q39.14-22.24 39.57-21.75 40-21.26 40-20.72 40-20.17 39.57-19.68 39.14-19.2 37.99-19.2 36.84-19.2 35.69-18.74 34.54-18.28 33.79-17.41L33.79-17.41Q32.24-15.52 32.24-12.41L32.24-12.41 32.24-1.61Q32.24-0.8 31.66-0.4 31.09 0 30.63 0 30.17 0 29.88-0.09 29.6-0.17 29.31-0.46L29.31-0.46Q28.79-0.8 28.79-1.61L28.79-1.61 28.79-20.11Q28.79-20.86 29.31-21.35 29.83-21.84 30.6-21.84 31.38-21.84 31.81-21.35 32.24-20.86 32.24-20.11L32.24-20.11ZM54.65-13.28L54.65-13.28Q55.86-13.28 57.06-13.22L57.06-13.22 57.06-15.06Q57.06-19.54 52.06-19.54L52.06-19.54Q49.82-19.54 48.79-19.14L48.79-19.14Q46.95-18.45 46.14-17.96 45.34-17.47 44.88-17.47 44.42-17.47 44.02-17.82 43.62-18.16 43.62-18.74L43.62-18.74Q43.62-19.2 44.13-19.66L44.13-19.66Q46.83-22.24 52.12-22.24L52.12-22.24Q58.21-22.24 59.94-18.16L59.94-18.16Q60.51-16.72 60.51-14.83L60.51-14.83 60.4-1.55Q60.4-0.8 59.88-0.4 59.36 0 58.73 0 58.1 0 57.58-0.34 57.06-0.69 57.06-1.49L57.06-1.49 57.06-3.56Q55.68-0.57 52.12 0.17L52.12 0.17Q51.03 0.46 49.65 0.46 48.27 0.46 46.92 0.06 45.57-0.34 44.54-1.21L44.54-1.21Q42.41-2.99 42.41-6.03L42.41-6.03Q42.41-13.28 54.65-13.28ZM57.06-8.74L57.06-10.69Q56.14-10.57 54.94-10.57 53.73-10.57 52.47-10.55 51.2-10.52 50.05-10.26 48.9-10 47.98-9.48L47.98-9.48Q46.03-8.45 45.91-6.09L45.91-6.09Q45.91-4.25 47.41-3.22L47.41-3.22Q48.56-2.3 50.68-2.24L50.68-2.24Q53.27-2.24 55.17-3.91L55.17-3.91Q56.89-5.52 57.06-8.74L57.06-8.74ZM65.62-10.92L65.62-10.92Q65.62-15.69 68.33-18.85L68.33-18.85Q71.26-22.24 75.97-22.24L75.97-22.24Q79.99-22.24 82.12-20.57L82.12-20.57Q82.75-20.11 82.75-19.48 82.75-18.85 82.41-18.48 82.06-18.1 81.6-18.1 81.14-18.1 80.91-18.28L80.91-18.28Q78.73-19.54 76.31-19.48L76.31-19.48Q73.15-19.48 71.37-17.13L71.37-17.13Q69.36-14.71 69.36-10.92L69.36-10.92Q69.36-7.41 70.8-5L70.8-5Q72.52-2.24 76.31-2.24L76.31-2.24Q78.38-2.24 81.37-3.68L81.37-3.68Q82.18-4.14 82.75-3.45L82.75-3.45Q83.1-3.1 83.1-2.5 83.1-1.9 82.35-1.29 81.6-0.69 80.57-0.34L80.57-0.34Q78.04 0.52 75.68 0.49 73.33 0.46 71.43-0.4 69.53-1.26 68.27-2.93L68.27-2.93Q65.62-6.09 65.62-10.92ZM102.86-0.57L92.06-11.72 92.06-1.72Q92.06-0.86 91.51-0.43 90.97 0 90.31 0 89.65 0 89.13-0.43 88.61-0.86 88.61-1.72L88.61-1.72 88.61-29.54Q88.61-30.46 89.13-30.86 89.65-31.26 90.16-31.26 90.68-31.26 91-31.21 91.31-31.15 91.6-30.86L91.6-30.86Q92.06-30.46 92.06-29.54L92.06-29.54 92.06-12.93 102-21.26Q102.52-21.84 103.09-21.84L103.09-21.84Q103.73-21.84 104.21-21.38 104.7-20.92 104.7-20.52L104.7-20.52Q104.7-19.77 104.24-19.43L104.24-19.43 95.74-12.3 105.39-2.53Q105.74-2.18 105.74-1.7 105.74-1.21 105.59-0.95 105.45-0.69 105.16-0.46L105.16-0.46Q104.59 0 104.01 0 103.44 0 102.86-0.57L102.86-0.57ZM125.27 6.32L127.86-0.17 119.41-19.48Q119.24-19.83 119.24-20.17 119.24-20.52 119.41-20.83 119.58-21.15 119.81-21.26L119.81-21.26Q120.5-21.72 121.13-21.84L121.13-21.84Q122.34-21.84 122.86-20.69L122.86-20.69 129.7-4.14 136.48-20.69Q137-21.84 137.83-21.84 138.66-21.84 139.21-21.35 139.76-20.86 139.76-20.34 139.76-19.83 139.58-19.48L139.58-19.48 128.55 7.36Q128.03 8.51 126.94 8.51L126.94 8.51Q126.25 8.51 125.79 8.16L125.79 8.16Q125.1 7.59 125.1 7.07 125.1 6.55 125.27 6.32L125.27 6.32ZM142.68-10.86L142.68-10.86Q142.68-12.93 143.34-15 144.01-17.07 145.38-18.74L145.38-18.74Q148.26-22.24 153.55-22.24 158.83-22.24 161.71-18.74L161.71-18.74Q164.41-15.4 164.41-10.92L164.41-10.92Q164.41-6.38 161.71-3.1L161.71-3.1Q158.83 0.46 153.55 0.46 148.26 0.46 145.38-3.1L145.38-3.1Q142.68-6.32 142.68-10.86ZM146.42-10.86L146.42-10.86Q146.42-9.48 146.79-7.93 147.17-6.38 148.14-5.06L148.14-5.06Q150.1-2.24 153.55-2.24L153.55-2.24Q157.17-2.24 158.95-5.06L158.95-5.06Q160.61-7.7 160.61-10.92L160.61-10.92Q160.61-14.25 158.95-16.67L158.95-16.67Q157.11-19.54 153.55-19.54L153.55-19.54Q150.1-19.54 148.14-16.67L148.14-16.67Q146.42-14.31 146.42-10.86ZM188.26-20.11L188.26-1.61Q188.26-0.8 187.65-0.4 187.05 0 186.62 0 186.19 0 185.84-0.09 185.5-0.17 185.27-0.46L185.27-0.46Q184.69-0.86 184.69-1.61L184.69-1.61 184.69-3.62Q183.31-0.57 179.64 0.17L179.64 0.17Q178.49 0.46 177.16 0.46 175.84 0.46 174.41 0 172.97-0.46 171.93-1.49L171.93-1.49Q169.64-3.68 169.64-8.05L169.64-8.05 169.64-20.11Q169.64-20.92 170.15-21.38 170.67-21.84 171.36-21.84L171.36-21.84Q172.05-21.84 172.57-21.38 173.08-20.92 173.08-20.11L173.08-20.11 173.08-7.76Q173.08-4.66 174.35-3.45L174.35-3.45Q175.61-2.24 178.14-2.24L178.14-2.24Q182.39-2.24 184-5.69L184-5.69Q184.64-6.9 184.69-8.45L184.69-8.45 184.69-20.11Q184.69-20.92 185.27-21.38 185.84-21.84 186.53-21.84L186.53-21.84Q187.22-21.84 187.74-21.38 188.26-20.92 188.26-20.11L188.26-20.11ZM198.43-20.11L198.43-18.16Q199.81-22.24 204.46-22.24L204.46-22.24Q205.32-22.24 205.75-21.75 206.18-21.26 206.18-20.72 206.18-20.17 205.75-19.68 205.32-19.2 204.17-19.2 203.02-19.2 201.87-18.74 200.72-18.28 199.98-17.41L199.98-17.41Q198.43-15.52 198.43-12.41L198.43-12.41 198.43-1.61Q198.43-0.8 197.85-0.4 197.28 0 196.82 0 196.36 0 196.07-0.09 195.78-0.17 195.49-0.46L195.49-0.46Q194.98-0.8 194.98-1.61L194.98-1.61 194.98-20.11Q194.98-20.86 195.49-21.35 196.01-21.84 196.79-21.84 197.56-21.84 197.99-21.35 198.43-20.86 198.43-20.11L198.43-20.11ZM225.49-20.11L225.49-18.16Q226.87-22.24 231.52-22.24L231.52-22.24Q232.39-22.24 232.82-21.75 233.25-21.26 233.25-20.72 233.25-20.17 232.82-19.68 232.39-19.2 231.24-19.2 230.09-19.2 228.94-18.74 227.79-18.28 227.04-17.41L227.04-17.41Q225.49-15.52 225.49-12.41L225.49-12.41 225.49-1.61Q225.49-0.8 224.92-0.4 224.34 0 223.88 0 223.42 0 223.13-0.09 222.85-0.17 222.56-0.46L222.56-0.46Q222.04-0.8 222.04-1.61L222.04-1.61 222.04-20.11Q222.04-20.86 222.56-21.35 223.08-21.84 223.85-21.84 224.63-21.84 225.06-21.35 225.49-20.86 225.49-20.11L225.49-20.11ZM256.98-11.55L256.98-11.55Q256.98-10.34 255.6-10.23L255.6-10.23 239.86-10.23Q240.08-4.37 244.45-2.64L244.45-2.64Q245.66-2.24 247.21-2.24L247.21-2.24Q250.43-2.24 253.76-4.6L253.76-4.6Q254.8-5.17 255.49-4.48L255.49-4.48Q255.83-4.14 255.72-3.79L255.72-3.79Q255.72-2.99 255.31-2.64L255.31-2.64Q252.15 0.52 246.98 0.46L246.98 0.46Q242.27 0.46 239.4-2.59L239.4-2.59Q236.18-5.75 236.18-10.92L236.18-10.92Q236.18-15.69 238.82-18.79L238.82-18.79Q241.58-22.24 246.64-22.24L246.64-22.24Q251.69-22.24 254.34-19.2L254.34-19.2Q256.87-16.44 256.98-11.55ZM239.97-12.59L253.59-12.59Q253.42-15.69 251.58-17.7L251.58-17.7Q249.86-19.54 246.64-19.54L246.64-19.54Q243.88-19.54 241.92-17.47L241.92-17.47Q240.14-15.4 239.97-12.59L239.97-12.59ZM272.73-13.28L272.73-13.28Q273.93-13.28 275.14-13.22L275.14-13.22 275.14-15.06Q275.14-19.54 270.14-19.54L270.14-19.54Q267.9-19.54 266.86-19.14L266.86-19.14Q265.02-18.45 264.22-17.96 263.42-17.47 262.96-17.47 262.5-17.47 262.09-17.82 261.69-18.16 261.69-18.74L261.69-18.74Q261.69-19.2 262.21-19.66L262.21-19.66Q264.91-22.24 270.2-22.24L270.2-22.24Q276.29-22.24 278.01-18.16L278.01-18.16Q278.59-16.72 278.59-14.83L278.59-14.83 278.47-1.55Q278.47-0.8 277.96-0.4 277.44 0 276.81 0 276.17 0 275.66-0.34 275.14-0.69 275.14-1.49L275.14-1.49 275.14-3.56Q273.76-0.57 270.2 0.17L270.2 0.17Q269.11 0.46 267.73 0.46 266.35 0.46 265 0.06 263.65-0.34 262.61-1.21L262.61-1.21Q260.48-2.99 260.48-6.03L260.48-6.03Q260.48-13.28 272.73-13.28ZM275.14-8.74L275.14-10.69Q274.22-10.57 273.01-10.57 271.81-10.57 270.54-10.55 269.28-10.52 268.13-10.26 266.98-10 266.06-9.48L266.06-9.48Q264.11-8.45 263.99-6.09L263.99-6.09Q263.99-4.25 265.48-3.22L265.48-3.22Q266.63-2.3 268.76-2.24L268.76-2.24Q271.35-2.24 273.24-3.91L273.24-3.91Q274.97-5.52 275.14-8.74L275.14-8.74ZM300.71-1.61L300.71-3.62Q297.84 0.46 292.9 0.46L292.9 0.46Q288.41 0.46 285.88-3.1L285.88-3.1Q283.7-6.32 283.7-10.92L283.7-10.92Q283.7-18.62 288.82-21.26L288.82-21.26Q290.54-22.24 292.29-22.24 294.05-22.24 295.19-22.04 296.34-21.84 297.38-21.26L297.38-21.26Q299.56-20.17 300.71-18.28L300.71-18.28 300.71-29.66Q300.71-30.52 301.29-30.89 301.86-31.26 302.55-31.26L302.55-31.26Q303.24-31.26 303.76-30.89 304.28-30.52 304.28-29.66L304.28-29.66 304.28-1.61Q304.28-0.8 303.7-0.4 303.13 0 302.67 0 302.21 0 301.89-0.09 301.57-0.17 301.29-0.46L301.29-0.46Q300.71-0.86 300.71-1.61L300.71-1.61ZM293.59-2.24L293.59-2.24Q300.6-2.24 300.6-11.26L300.6-11.26Q300.6-17.07 297.09-18.85L297.09-18.85Q295.77-19.54 293.93-19.54 292.09-19.54 290.88-18.82 289.68-18.1 288.87-16.9L288.87-16.9Q287.44-14.66 287.44-11.21L287.44-11.21Q287.44-6.09 289.85-3.68L289.85-3.68Q291.23-2.24 293.59-2.24ZM314.73-29.43L314.73-29.43Q314.73-28.51 314.1-27.93 313.47-27.36 312.32-27.36 311.17-27.36 310.54-27.93 309.91-28.51 309.91-29.43L309.91-29.43Q309.91-30.23 310.54-30.8 311.17-31.38 312.35-31.38 313.53-31.38 314.13-30.8 314.73-30.23 314.73-29.43ZM310.59-1.72L310.59-20Q310.59-20.86 311.17-21.35 311.74-21.84 312.2-21.84 312.66-21.84 312.95-21.7 313.24-21.55 313.53-21.26L313.53-21.26Q314.16-20.86 314.16-20L314.16-20 314.16-1.72Q314.16-0.86 313.58-0.43 313.01 0 312.32 0L312.32 0Q311.63 0 311.11-0.43 310.59-0.86 310.59-1.72L310.59-1.72ZM320.94-1.61L320.94-20.17Q320.94-20.92 321.51-21.38 322.09-21.84 322.66-21.84L322.66-21.84Q323.87-21.84 324.21-20.92 324.56-20 324.39-18.16L324.39-18.16Q325.07-19.89 327.37-21.15L327.37-21.15Q329.39-22.24 331.37-22.24 333.35-22.24 334.73-21.75 336.11-21.26 337.26-20.23L337.26-20.23Q339.56-18.05 339.56-13.79L339.56-13.79 339.56-1.61Q339.56-0.8 338.95-0.4 338.35 0 337.72 0L337.72 0Q337.03 0 336.51-0.43 335.99-0.86 335.99-1.61L335.99-1.61 335.99-14.02Q335.99-16.72 334.5-18.16L334.5-18.16Q333.12-19.54 331.05-19.54L331.05-19.54Q328.29-19.54 326.34-17.93L326.34-17.93Q324.39-16.21 324.39-12.64L324.39-12.64 324.39-1.61Q324.39-0.8 323.81-0.4 323.24 0 322.55 0L322.55 0Q321.86 0 321.4-0.43 320.94-0.86 320.94-1.61L320.94-1.61ZM355.01-19.48L355.01-19.48Q348.58-19.48 348.58-10.92L348.58-10.92Q348.58-6.9 350.59-4.6L350.59-4.6Q352.31-2.59 355.07-2.53L355.07-2.53Q357.89-2.53 359.84-4.66L359.84-4.66Q361.91-6.9 361.91-10.8L361.91-10.8Q361.91-16.67 358.23-18.74L358.23-18.74Q356.97-19.48 355.01-19.48ZM354.1-22.24L354.1-22.24Q359.73-22.24 362.03-17.93L362.03-17.93 362.03-20.34Q362.14-21.03 362.6-21.44 363.06-21.84 363.69-21.84 364.33-21.84 364.84-21.38 365.36-20.92 365.36-20.17L365.36-20.17 365.36 0.46Q365.36 4.94 362.49 7.13L362.49 7.13Q359.9 9.2 355.01 9.2L355.01 9.2Q350.65 9.2 348.46 7.7L348.46 7.7Q346.74 6.44 346.74 5.63L346.74 5.63Q346.74 5.06 347.11 4.68 347.49 4.31 347.97 4.31 348.46 4.31 348.92 4.63 349.38 4.94 350.01 5.23 350.65 5.52 351.28 5.75L351.28 5.75Q352.95 6.32 354.7 6.32 356.45 6.32 357.74 6.03 359.04 5.75 359.96 5.06L359.96 5.06Q361.91 3.79 361.91 0.69L361.91 0.69 361.91-4.31Q360.24-1.15 356.62-0.23L356.62-0.23Q355.47 0 354.38 0L354.38 0Q349.61 0 347.08-3.28L347.08-3.28Q344.73-6.21 344.73-10.8L344.73-10.8Q344.73-15.69 347.08-18.79L347.08-18.79Q349.56-22.24 354.1-22.24ZM379.67 7.82L379.67 7.82Q378.75 7.76 378.75 6.72L378.75 6.72Q378.75 6.32 379.03 5.92 379.32 5.52 380.18 5.52 381.04 5.52 381.73 5.4 382.42 5.29 382.77 4.83L382.77 4.83Q383.34 4.25 383.34 1.61L383.34 1.61 383.34-20Q383.34-20.86 383.86-21.35 384.38-21.84 384.9-21.84 385.41-21.84 385.76-21.7 386.1-21.55 386.33-21.26L386.33-21.26Q386.85-20.8 386.85-20L386.85-20 386.85 0.69Q386.85 2.76 386.68 4.2 386.5 5.63 385.87 6.55L385.87 6.55Q384.78 8.16 380.93 8.16L380.93 8.16 380.58 8.16Q380.3 8.16 379.98 8.05 379.67 7.93 379.67 7.82ZM387.48-29.43L387.48-29.43Q387.48-28.51 386.82-27.93 386.16-27.36 385.04-27.36 383.92-27.36 383.31-27.93 382.71-28.51 382.71-29.43L382.71-29.43Q382.71-30.23 383.31-30.8 383.92-31.38 385.07-31.38L385.07-31.38Q386.16-31.38 386.82-30.8 387.48-30.23 387.48-29.43ZM392.08-10.86L392.08-10.86Q392.08-12.93 392.74-15 393.4-17.07 394.78-18.74L394.78-18.74Q397.65-22.24 402.94-22.24 408.23-22.24 411.1-18.74L411.1-18.74Q413.8-15.4 413.8-10.92L413.8-10.92Q413.8-6.38 411.1-3.1L411.1-3.1Q408.23 0.46 402.94 0.46 397.65 0.46 394.78-3.1L394.78-3.1Q392.08-6.32 392.08-10.86ZM395.81-10.86L395.81-10.86Q395.81-9.48 396.19-7.93 396.56-6.38 397.54-5.06L397.54-5.06Q399.49-2.24 402.94-2.24L402.94-2.24Q406.56-2.24 408.34-5.06L408.34-5.06Q410.01-7.7 410.01-10.92L410.01-10.92Q410.01-14.25 408.34-16.67L408.34-16.67Q406.5-19.54 402.94-19.54L402.94-19.54Q399.49-19.54 397.54-16.67L397.54-16.67Q395.81-14.31 395.81-10.86ZM437.65-20.11L437.65-1.61Q437.65-0.8 437.05-0.4 436.44 0 436.01 0 435.58 0 435.23-0.09 434.89-0.17 434.66-0.46L434.66-0.46Q434.09-0.86 434.09-1.61L434.09-1.61 434.09-3.62Q432.71-0.57 429.03 0.17L429.03 0.17Q427.88 0.46 426.56 0.46 425.23 0.46 423.8 0 422.36-0.46 421.33-1.49L421.33-1.49Q419.03-3.68 419.03-8.05L419.03-8.05 419.03-20.11Q419.03-20.92 419.55-21.38 420.06-21.84 420.75-21.84L420.75-21.84Q421.44-21.84 421.96-21.38 422.48-20.92 422.48-20.11L422.48-20.11 422.48-7.76Q422.48-4.66 423.74-3.45L423.74-3.45Q425-2.24 427.53-2.24L427.53-2.24Q431.79-2.24 433.4-5.69L433.4-5.69Q434.03-6.9 434.09-8.45L434.09-8.45 434.09-20.11Q434.09-20.92 434.66-21.38 435.23-21.84 435.92-21.84L435.92-21.84Q436.61-21.84 437.13-21.38 437.65-20.92 437.65-20.11L437.65-20.11ZM447.82-20.11L447.82-18.16Q449.2-22.24 453.85-22.24L453.85-22.24Q454.72-22.24 455.15-21.75 455.58-21.26 455.58-20.72 455.58-20.17 455.15-19.68 454.72-19.2 453.57-19.2 452.42-19.2 451.27-18.74 450.12-18.28 449.37-17.41L449.37-17.41Q447.82-15.52 447.82-12.41L447.82-12.41 447.82-1.61Q447.82-0.8 447.24-0.4 446.67 0 446.21 0 445.75 0 445.46-0.09 445.17-0.17 444.89-0.46L444.89-0.46Q444.37-0.8 444.37-1.61L444.37-1.61 444.37-20.11Q444.37-20.86 444.89-21.35 445.4-21.84 446.18-21.84 446.96-21.84 447.39-21.35 447.82-20.86 447.82-20.11L447.82-20.11ZM459.89-1.61L459.89-20.17Q459.89-20.92 460.46-21.38 461.03-21.84 461.61-21.84L461.61-21.84Q462.82-21.84 463.16-20.92 463.51-20 463.33-18.16L463.33-18.16Q464.02-19.89 466.32-21.15L466.32-21.15Q468.33-22.24 470.32-22.24 472.3-22.24 473.68-21.75 475.06-21.26 476.21-20.23L476.21-20.23Q478.51-18.05 478.51-13.79L478.51-13.79 478.51-1.61Q478.51-0.8 477.9-0.4 477.3 0 476.67 0L476.67 0Q475.98 0 475.46-0.43 474.94-0.86 474.94-1.61L474.94-1.61 474.94-14.02Q474.94-16.72 473.45-18.16L473.45-18.16Q472.07-19.54 470-19.54L470-19.54Q467.24-19.54 465.29-17.93L465.29-17.93Q463.33-16.21 463.33-12.64L463.33-12.64 463.33-1.61Q463.33-0.8 462.76-0.4 462.18 0 461.49 0L461.49 0Q460.8 0 460.34-0.43 459.89-0.86 459.89-1.61L459.89-1.61ZM504.65-11.55L504.65-11.55Q504.65-10.34 503.27-10.23L503.27-10.23 487.53-10.23Q487.76-4.37 492.12-2.64L492.12-2.64Q493.33-2.24 494.88-2.24L494.88-2.24Q498.1-2.24 501.43-4.6L501.43-4.6Q502.47-5.17 503.16-4.48L503.16-4.48Q503.5-4.14 503.39-3.79L503.39-3.79Q503.39-2.99 502.99-2.64L502.99-2.64Q499.83 0.52 494.65 0.46L494.65 0.46Q489.94 0.46 487.07-2.59L487.07-2.59Q483.85-5.75 483.85-10.92L483.85-10.92Q483.85-15.69 486.49-18.79L486.49-18.79Q489.25-22.24 494.31-22.24L494.31-22.24Q499.37-22.24 502.01-19.2L502.01-19.2Q504.54-16.44 504.65-11.55ZM487.64-12.59L501.26-12.59Q501.09-15.69 499.25-17.7L499.25-17.7Q497.53-19.54 494.31-19.54L494.31-19.54Q491.55-19.54 489.6-17.47L489.6-17.47Q487.81-15.4 487.64-12.59L487.64-12.59ZM513.67 6.32L516.26-0.17 507.81-19.48Q507.64-19.83 507.64-20.17 507.64-20.52 507.81-20.83 507.98-21.15 508.21-21.26L508.21-21.26Q508.9-21.72 509.54-21.84L509.54-21.84Q510.74-21.84 511.26-20.69L511.26-20.69 518.1-4.14 524.88-20.69Q525.4-21.84 526.23-21.84 527.06-21.84 527.61-21.35 528.16-20.86 528.16-20.34 528.16-19.83 527.98-19.48L527.98-19.48 516.95 7.36Q516.43 8.51 515.34 8.51L515.34 8.51Q514.65 8.51 514.19 8.16L514.19 8.16Q513.5 7.59 513.5 7.07 513.5 6.55 513.67 6.32L513.67 6.32Z" opacity="1" transform="matrix(1,0,0,1,0,0)" fill="#f4a424" class="undefined-text-1" data-fill-palette-color="secondary" id="text-1"></path></svg></g></svg></g></svg></g></svg></g></svg></g><defs></defs></svg><rect width="395.52" height="79.02619856198045" fill="none" stroke="none" visibility="hidden"></rect></g></svg></g></svg>