<svg xmlns="http://www.w3.org/2000/svg" version="1.1" xmlns:xlink="http://www.w3.org/1999/xlink" xmlns:svgjs="http://svgjs.dev/svgjs" width="2000" height="424" viewBox="0 0 2000 424"><g transform="matrix(1,0,0,1,-1.2121212121212466,0.49752539434336995)"><svg viewBox="0 0 396 84" data-background-color="#ffffff" preserveAspectRatio="xMidYMid meet" height="424" width="2000" xmlns="http://www.w3.org/2000/svg" xmlns:xlink="http://www.w3.org/1999/xlink"><g id="tight-bounds" transform="matrix(1,0,0,1,0.2400000000000091,-0.09856635170953609)"><svg viewBox="0 0 395.52 84.19713270341906" height="84.19713270341906" width="395.52"><g><svg viewBox="0 0 521.6520982311295 111.04776228707372" height="84.19713270341906" width="395.52"><g><rect width="4.462792420198059" height="80.75470412337849" x="407.20270267067554" y="15.146529081847618" fill="#2b2b2b" opacity="1" stroke-width="0" stroke="transparent" fill-opacity="1" class="rect-in-0" data-fill-palette-color="primary" rx="1%" id="in-0" data-palette-color="#2b2b2b"></rect></g><g transform="matrix(1,0,0,1,0,15.347411430413231)"><svg viewBox="0 0 395.52 80.35293942624726" height="80.35293942624726" width="395.52"><g><svg viewBox="0 0 395.52 80.35293942624726" height="80.35293942624726" width="395.52"><g><svg viewBox="0 0 395.52 49.48704091341579" height="49.48704091341579" width="395.52"><g transform="matrix(1,0,0,1,0,0)"><svg width="395.52" viewBox="2.8 -38.6 309.93 39.45" height="49.48704091341579" data-palette-color="#2b2b2b"><g class="undefined-text-0" data-fill-palette-color="primary" id="text-0"><path d="M20.9 0.85Q15.05 0.85 10.98-1.73 6.9-4.3 4.85-8.78 2.8-13.25 2.8-18.9L2.8-18.9Q2.8-24.45 4.85-28.9 6.9-33.35 10.98-35.98 15.05-38.6 20.9-38.6L20.9-38.6Q26.7-38.6 30.75-35.98 34.8-33.35 36.88-28.88 38.95-24.4 38.95-18.9L38.95-18.9Q38.95-13.25 36.9-8.78 34.85-4.3 30.78-1.73 26.7 0.85 20.9 0.85L20.9 0.85ZM20.9-3.4Q25-3.4 27.95-5.45 30.9-7.5 32.43-11.05 33.95-14.6 33.95-19.05L33.95-19.05Q33.95-23.35 32.4-26.83 30.85-30.3 27.9-32.33 24.95-34.35 20.9-34.35L20.9-34.35Q16.7-34.35 13.75-32.3 10.8-30.25 9.3-26.75 7.8-23.25 7.8-18.9L7.8-18.9Q7.8-14.45 9.3-10.95 10.8-7.45 13.75-5.43 16.7-3.4 20.9-3.4L20.9-3.4ZM60.4-37.9Q72.8-37.9 72.8-26.6L72.8-26.6Q72.8-21.1 69.7-18.23 66.6-15.35 60.4-15.35L60.4-15.35 52-15.35 52 0 47.15 0 47.15-37.9 60.4-37.9ZM67.85-26.6Q67.85-30.3 66-31.98 64.15-33.65 60.4-33.65L60.4-33.65 52-33.65 52-19.65 60.4-19.65Q67.8-19.65 67.85-26.6L67.85-26.6ZM85-4.2L103.35-4.2 103.35 0 80.15 0 80.15-37.9 103.1-37.9 103.1-33.7 85-33.7 85-21.15 100.6-21.15 100.6-16.95 85-16.95 85-4.2ZM135.64-37.9L140.49-37.9 140.49 0 135.19 0 116.54-29.75 116.54 0 111.69 0 111.69-37.9 116.94-37.9 135.64-8.15 135.64-37.9Z" fill="#2b2b2b" data-fill-palette-color="primary"></path><path d="M167.79 0L158.04-16.05 150.69-16.05 150.69 0 145.84 0 145.84-37.9 159.09-37.9Q171.49-37.9 171.49-26.9L171.49-26.9Q171.49-22.55 169.42-19.88 167.34-17.2 163.19-16.4L163.19-16.4 173.34 0 167.79 0ZM150.69-33.65L150.69-20.3 159.09-20.3Q166.49-20.3 166.54-26.9L166.54-26.9Q166.54-30.4 164.69-32.02 162.84-33.65 159.09-33.65L159.09-33.65 150.69-33.65ZM185.99-4.2L204.34-4.2 204.34 0 181.14 0 181.14-37.9 204.09-37.9 204.09-33.7 185.99-33.7 185.99-21.15 201.59-21.15 201.59-16.95 185.99-16.95 185.99-4.2ZM237.64 0L233.54-11.05 217.74-11.05 213.69 0 208.69 0 222.94-38.35 228.34-38.35 242.64 0 237.64 0ZM219.39-15.4L231.89-15.4 225.64-32.3 219.39-15.4ZM261.88-37.9Q271.23-37.9 276.01-33.08 280.78-28.25 280.78-18.9L280.78-18.9Q280.78-9.5 276.03-4.75 271.28 0 261.88 0L261.88 0 249.28 0 249.28-37.9 261.88-37.9ZM275.78-19.05Q275.78-26.55 272.28-30.1 268.78-33.65 261.88-33.65L261.88-33.65 254.13-33.65 254.13-4.25 261.88-4.25Q268.83-4.25 272.31-7.8 275.78-11.35 275.78-19.05L275.78-19.05ZM299.83 0.85Q292.58 0.85 286.88-1.85L286.88-1.85 286.88-6.45Q292.63-3.4 299.83-3.4L299.83-3.4Q303.98-3.4 305.91-5.15 307.83-6.9 307.83-9.75L307.83-9.75Q307.83-12.45 306.06-13.8 304.28-15.15 300.83-16.15L300.83-16.15 297.43-17.1Q294.53-17.95 292.48-19.05 290.43-20.15 289.06-22.23 287.68-24.3 287.68-27.65L287.68-27.65Q287.68-33 290.81-35.8 293.93-38.6 299.68-38.6L299.68-38.6Q303.03-38.6 305.58-37.98 308.13-37.35 310.88-36.1L310.88-36.1 310.88-31.6Q305.78-34.35 299.68-34.35L299.68-34.35Q295.98-34.35 294.28-32.63 292.58-30.9 292.58-27.9L292.58-27.9Q292.63-25.15 294.26-23.85 295.88-22.55 299.33-21.55L299.33-21.55 302.78-20.6Q305.83-19.75 307.96-18.63 310.08-17.5 311.41-15.38 312.73-13.25 312.73-9.85L312.73-9.85Q312.68-4.9 309.26-2.02 305.83 0.85 299.83 0.85L299.83 0.85Z" fill="#f4a424" data-fill-palette-color="secondary"></path></g></svg></g></svg></g><g transform="matrix(1,0,0,1,163.310208,61.169743584091336)"><svg viewBox="0 0 232.209792 19.18319584215592" height="19.18319584215592" width="232.209792"><g transform="matrix(1,0,0,1,0,0)"><svg width="232.209792" viewBox="1.05 -38.3 623.34 51.5" height="19.18319584215592" data-palette-color="#f4a424"><path d="M30.25-33.35L30.25-25.8 28.75-25.8 27.05-31.55 18.2-31.65 18.2-1.65 22.85-1.2 22.85 0 8.4 0 8.4-1.2 13.05-1.65 13.05-31.65 4.2-31.55 2.5-25.8 1.05-25.8 1.05-33.35 15.65-33.45 30.25-33.35ZM47.4-25L47.4-25Q48.7-25 49.45-24.38 50.2-23.75 50.2-22.65L50.2-22.65Q50.2-20.75 48.75-20.15L48.75-20.15Q47.95-20.8 45.85-20.8 43.75-20.8 41.82-19.43 39.9-18.05 39.9-16.3L39.9-16.3 39.9-1.45 44.4-1.2 44.4 0 31.7 0 31.7-1.2 35-1.4 35-22.75 31.05-22.95 31.05-24.1 39.9-24.65 39.6-18.5 39.8-18.5Q40.65-21.2 42.92-23.1 45.2-25 47.4-25ZM57.7-5.4L57.7-5.4Q57.7-2.15 60.34-1.55L60.34-1.55Q60.95-1.4 61.5-1.4L61.5-1.4Q63.4-1.4 65.45-3.03 67.5-4.65 67.59-7.4L67.59-7.4 67.59-11.7Q57.7-11.6 57.7-5.4ZM59.7 0.6L59.7 0.6Q56.84 0.6 54.82-0.98 52.8-2.55 52.8-5.4L52.8-5.4Q52.84-9.25 56.67-11.15 60.5-13.05 67.59-13.05L67.59-13.05 67.59-17.35Q67.59-23.7 63-23.7L63-23.7Q60.65-23.7 59.2-21.75L59.2-21.75Q58.2-20.4 58.2-18.4L58.2-18.4Q58.2-17.55 58.4-16.6L58.4-16.6Q57.7-16.1 56.97-16.1 56.25-16.1 55.55-16.4L55.55-16.4Q53.95-17 53.95-18.7L53.95-18.7Q53.95-21 55.59-22.5L55.59-22.5Q58.3-24.95 63.05-24.95 67.8-24.95 69.95-22.93 72.09-20.9 72.09-16.55L72.09-16.55 72.09-1.4 76.3-1.2 76.34-0.05 68 0.55 67.55-3.9Q65.25 0.6 59.7 0.6ZM91.34-24.95L91.34-24.95Q94.14-24.95 96.74-23.75L96.74-23.75Q98.19-23.1 99.07-21.75 99.94-20.4 99.94-18.6 99.94-16.8 98.34-16.15L98.34-16.15Q97.69-15.9 96.97-15.9 96.24-15.9 95.49-16.4L95.49-16.4Q95.69-17.45 95.69-18.88 95.69-20.3 94.79-21.6L94.79-21.6Q93.49-23.55 91.09-23.55L91.09-23.55Q84.14-23.55 84.14-12.1L84.14-12.1Q84.14-6.5 85.77-3.68 87.39-0.85 91.04-0.85L91.04-0.85Q95.69-0.85 98.49-5.35L98.49-5.35Q99.59-5 99.59-4.28 99.59-3.55 98.67-2.48 97.74-1.4 95.47-0.43 93.19 0.55 90.24 0.55L90.24 0.55Q85.09 0.55 81.92-2.95 78.74-6.45 78.74-12.2 78.74-17.95 82.17-21.45 85.59-24.95 91.34-24.95ZM118.59-23.25L118.59-24.4 128.39-24.4 128.39-23.25 124.69-22.3 115.14-14.1 126.24-1.55 129.59-1.2 129.59 0 117.74 0 117.74-1.2 120.54-1.45 111.24-12.4 111.24-1.45 114.34-1.2 114.34 0 103.09 0 103.09-1.2 106.34-1.45 106.34-35.9 101.94-36.1 101.89-37.25 111.24-38.3 111.24-13 121.84-22.3 118.59-23.25ZM150.41 10.2Q149.38 11.35 147.83 12.28 146.28 13.2 144.71 13.2 143.13 13.2 142.26 12.38 141.38 11.55 141.38 10.18 141.38 8.8 142.63 7.4L142.63 7.4Q144.03 9 145.78 9L145.78 9Q148.28 9 150.08 6.83 151.88 4.65 153.58 0L153.58 0 143.98-22.8 141.44-23.1 141.44-24.4 152.08-24.4 152.08-23.1 148.63-22.8 155.78-5.35 161.94-22.15 157.94-23.1 157.94-24.4 167.53-24.4 167.53-23.1 164.03-22.15 155.58 0Q154.69 2.3 154.19 3.55 153.69 4.8 152.56 6.93 151.44 9.05 150.41 10.2ZM194.08-12.2Q194.08-6.65 190.73-3.05 187.38 0.55 181.61 0.55 175.83 0.55 172.48-3.05 169.13-6.65 169.13-12.2 169.13-17.75 172.48-21.35 175.83-24.95 181.61-24.95 187.38-24.95 190.73-21.35 194.08-17.75 194.08-12.2ZM174.58-12.2L174.58-12.2Q174.58-0.65 181.61-0.65 188.63-0.65 188.63-12.2L188.63-12.2Q188.63-17.8 187.03-20.75 185.43-23.7 181.63-23.7 177.83-23.7 176.21-20.75 174.58-17.8 174.58-12.2ZM208.63 0.6L208.63 0.6Q200.63 0.6 200.63-7.1L200.63-7.1Q200.63-12.75 200.98-22.8L200.98-22.8 196.98-23 196.98-24.15 205.88-24.7Q205.53-11.5 205.53-6.75L205.53-6.75Q205.53-3.9 206.58-2.5 207.63-1.1 210.1-1.1 212.58-1.1 214.78-3.88 216.98-6.65 216.98-8.75L216.98-8.75 216.98-22.8 212.83-23 212.83-24.15 221.88-24.7 221.88-1.55 226.13-1.35 226.18-0.2 217.18 0.4 217.53-5 216.93-5Q214.33 0.6 208.63 0.6ZM244.28-25L244.28-25Q245.58-25 246.33-24.38 247.08-23.75 247.08-22.65L247.08-22.65Q247.08-20.75 245.63-20.15L245.63-20.15Q244.83-20.8 242.73-20.8 240.63-20.8 238.7-19.43 236.78-18.05 236.78-16.3L236.78-16.3 236.78-1.45 241.28-1.2 241.28 0 228.58 0 228.58-1.2 231.88-1.4 231.88-22.75 227.93-22.95 227.93-24.1 236.78-24.65 236.48-18.5 236.68-18.5Q237.53-21.2 239.8-23.1 242.08-25 244.28-25ZM276.77-25L276.77-25Q278.07-25 278.82-24.38 279.57-23.75 279.57-22.65L279.57-22.65Q279.57-20.75 278.12-20.15L278.12-20.15Q277.32-20.8 275.22-20.8 273.12-20.8 271.2-19.43 269.27-18.05 269.27-16.3L269.27-16.3 269.27-1.45 273.77-1.2 273.77 0 261.07 0 261.07-1.2 264.37-1.4 264.37-22.75 260.42-22.95 260.42-24.1 269.27-24.65 268.97-18.5 269.17-18.5Q270.02-21.2 272.3-23.1 274.57-25 276.77-25ZM293.47 0.55Q288.32 0.55 285.17-2.95 282.02-6.45 282.02-12.2 282.02-17.95 285.35-21.45 288.67-24.95 293.72-24.95 298.77-24.95 301.27-22.68 303.77-20.4 303.77-16.35L303.77-16.35Q303.77-15.15 303.57-13.95L303.57-13.95 287.42-13.95 287.42-12.2Q287.42-6.6 289.02-3.73 290.62-0.85 294.27-0.85L294.27-0.85Q299.42-0.85 302.22-5.35L302.22-5.35Q303.32-5 303.32-4.3L303.32-4.3Q303.32-3.05 301.02-1.4L301.02-1.4Q299.92-0.6 297.92-0.03 295.92 0.55 293.47 0.55L293.47 0.55ZM299.02-17.4L299.02-17.4Q299.02-19.7 298.07-21.35L298.07-21.35Q296.77-23.55 293.87-23.55L293.87-23.55Q288.47-23.55 287.57-15.75L287.57-15.75 298.92-15.75Q299.02-16.6 299.02-17.4ZM312.92-5.4L312.92-5.4Q312.92-2.15 315.57-1.55L315.57-1.55Q316.17-1.4 316.72-1.4L316.72-1.4Q318.62-1.4 320.67-3.03 322.72-4.65 322.82-7.4L322.82-7.4 322.82-11.7Q312.92-11.6 312.92-5.4ZM314.92 0.6L314.92 0.6Q312.07 0.6 310.04-0.98 308.02-2.55 308.02-5.4L308.02-5.4Q308.07-9.25 311.89-11.15 315.72-13.05 322.82-13.05L322.82-13.05 322.82-17.35Q322.82-23.7 318.22-23.7L318.22-23.7Q315.87-23.7 314.42-21.75L314.42-21.75Q313.42-20.4 313.42-18.4L313.42-18.4Q313.42-17.55 313.62-16.6L313.62-16.6Q312.92-16.1 312.19-16.1 311.47-16.1 310.77-16.4L310.77-16.4Q309.17-17 309.17-18.7L309.17-18.7Q309.17-21 310.82-22.5L310.82-22.5Q313.52-24.95 318.27-24.95 323.02-24.95 325.17-22.93 327.32-20.9 327.32-16.55L327.32-16.55 327.32-1.4 331.52-1.2 331.57-0.05 323.22 0.55 322.77-3.9Q320.47 0.6 314.92 0.6ZM352.92-7.65L352.92-7.65 352.92-21.4Q350.52-23.25 346.97-23.25L346.97-23.25Q342.52-23.25 340.87-19.6L340.87-19.6Q339.52-16.5 339.52-11.15L339.52-11.15Q339.52-0.8 345.12-0.8L345.12-0.8Q348.27-0.8 350.59-3.2 352.92-5.6 352.92-7.65ZM344.17 0.75L344.17 0.75Q339.87 0.75 336.92-2.33 333.97-5.4 333.97-11.53 333.97-17.65 337.54-21.2 341.12-24.75 347.06-24.75L347.06-24.75Q350.17-24.75 352.92-23.3L352.92-23.3 352.92-35.9 348.52-36.1 348.47-37.25 357.72-38.3 357.72-1.15 361.97-0.95 362.02 0.2 353.17 0.8 353.27-4 352.97-4Q351.77-1.75 349.31-0.5 346.87 0.75 344.17 0.75ZM372.81-32.58Q372.81-31.35 371.96-30.48 371.11-29.6 369.84-29.6 368.56-29.6 367.71-30.45 366.86-31.3 366.86-32.58 366.86-33.85 367.71-34.73 368.56-35.6 369.81-35.6 371.06-35.6 371.94-34.7 372.81-33.8 372.81-32.58ZM375.81 0L364.31 0 364.31-1.2 367.61-1.45 367.61-22.7 363.21-22.85 363.21-24 372.51-24.65 372.51-1.45 375.81-1.2 375.81 0ZM386.76-19.15L387.21-19.1Q389.46-24.9 396.26-24.9L396.26-24.9Q399.66-24.9 401.76-22.88 403.86-20.85 403.86-17.1L403.86-17.1Q403.86-10.65 403.46-1.45L403.46-1.45 406.91-1.2 406.91 0 395.86 0 395.86-1.2 398.56-1.4Q398.96-12.7 398.96-14.35 398.96-16 398.91-16.88 398.86-17.75 398.63-19.03 398.41-20.3 397.96-21.05L397.96-21.05Q396.86-22.9 394.51-22.9L394.51-22.9Q391.31-22.9 389.26-20.25 387.21-17.6 387.21-14.5L387.21-14.5 387.21-1.45 390.96-1.2 390.96 0 379.01 0 379.01-1.2 382.31-1.45 382.31-22.6 378.06-22.8 378.06-23.95 387.01-24.55 386.76-19.15ZM416.36-5L416.36-5Q416.36-3.85 417.98-3.48 419.61-3.1 424.76-2.65 429.91-2.2 432.16-0.83 434.41 0.55 434.41 3.6L434.41 3.6Q434.41 7.5 430.73 10.25 427.06 13 421.21 13 415.36 13 412.61 11.13 409.86 9.25 409.86 6.15L409.86 6.15Q409.86 4.1 411.21 2.27 412.56 0.45 415.16-0.3L415.16-0.3Q412.11-1.4 412.11-3.95L412.11-3.95Q412.11-5.45 413.66-6.48 415.21-7.5 417.16-7.75L417.16-7.75Q414.01-8.65 412.31-10.88 410.61-13.1 410.61-16.1L410.61-16.1Q410.61-19.95 413.48-22.45 416.36-24.95 421.26-24.95L421.26-24.95Q422.66-24.95 424.31-24.6L424.31-24.6Q425.76-24.95 426.61-26.1L426.61-26.1Q427.51-27.35 427.51-28.75 427.51-30.15 427.36-31.15L427.36-31.15Q428.06-31.45 428.76-31.45 429.46-31.45 430.16-31.1L430.16-31.1Q431.51-30.4 431.51-28.68 431.51-26.95 429.86-25.65 428.21-24.35 425.91-24.15L425.91-24.15Q428.61-23.15 430.06-21.03 431.51-18.9 431.51-16.1L431.51-16.1Q431.51-11.9 428.28-9.6 425.06-7.3 420.36-7.3L420.36-7.3Q418.61-7.25 417.48-6.53 416.36-5.8 416.36-5ZM413.71 5.6L413.71 5.6Q413.71 8.25 415.88 9.83 418.06 11.4 421.53 11.4 425.01 11.4 427.76 9.65 430.51 7.9 430.56 5.25L430.56 5.25Q430.56 3.55 429.46 2.7L429.46 2.7Q428.51 1.95 426.81 1.7 425.11 1.45 422.08 1.13 419.06 0.8 416.91 0.35L416.91 0.35Q415.56 1.05 414.63 2.53 413.71 4 413.71 5.6ZM420.91-8.35L420.91-8.35Q423.71-8.35 425.06-10.5 426.41-12.65 426.41-16.1L426.41-16.1Q426.41-23.85 421.26-23.85L421.26-23.85Q418.46-23.85 417.08-21.78 415.71-19.7 415.71-16.1L415.71-16.1Q415.71-8.35 420.91-8.35ZM451.55-0.95L451.55-0.95 451.55-22.75 447.15-22.95 447.15-24.1 456.45-24.65 456.45-0.2Q456.45 6.45 453.65 9.8 450.85 13.15 445.65 13.15L445.65 13.15Q442.55 13.15 440.48 11.98 438.4 10.8 438.4 8.83 438.4 6.85 439.8 5.9L439.8 5.9Q440.55 5.4 441.33 5.4 442.1 5.4 442.8 5.7L442.8 5.7Q442.5 7.1 442.5 8.4 442.5 9.7 443.4 10.7 444.3 11.7 445.9 11.7 447.5 11.7 448.63 10.83 449.75 9.95 450.3 8.8L450.3 8.8Q451.55 6.1 451.55-0.95ZM456.65-32.58Q456.65-31.35 455.8-30.48 454.95-29.6 453.68-29.6 452.4-29.6 451.55-30.45 450.7-31.3 450.7-32.58 450.7-33.85 451.55-34.73 452.4-35.6 453.65-35.6 454.9-35.6 455.78-34.7 456.65-33.8 456.65-32.58ZM487.7-12.2Q487.7-6.65 484.35-3.05 481 0.55 475.23 0.55 469.45 0.55 466.1-3.05 462.75-6.65 462.75-12.2 462.75-17.75 466.1-21.35 469.45-24.95 475.23-24.95 481-24.95 484.35-21.35 487.7-17.75 487.7-12.2ZM468.2-12.2L468.2-12.2Q468.2-0.65 475.23-0.65 482.25-0.65 482.25-12.2L482.25-12.2Q482.25-17.8 480.65-20.75 479.05-23.7 475.25-23.7 471.45-23.7 469.82-20.75 468.2-17.8 468.2-12.2ZM502.25 0.6L502.25 0.6Q494.25 0.6 494.25-7.1L494.25-7.1Q494.25-12.75 494.6-22.8L494.6-22.8 490.6-23 490.6-24.15 499.5-24.7Q499.15-11.5 499.15-6.75L499.15-6.75Q499.15-3.9 500.2-2.5 501.25-1.1 503.72-1.1 506.2-1.1 508.4-3.88 510.6-6.65 510.6-8.75L510.6-8.75 510.6-22.8 506.45-23 506.45-24.15 515.5-24.7 515.5-1.55 519.75-1.35 519.8-0.2 510.8 0.4 511.15-5 510.55-5Q507.95 0.6 502.25 0.6ZM537.89-25L537.89-25Q539.19-25 539.94-24.38 540.69-23.75 540.69-22.65L540.69-22.65Q540.69-20.75 539.24-20.15L539.24-20.15Q538.44-20.8 536.34-20.8 534.24-20.8 532.32-19.43 530.39-18.05 530.39-16.3L530.39-16.3 530.39-1.45 534.89-1.2 534.89 0 522.19 0 522.19-1.2 525.49-1.4 525.49-22.75 521.54-22.95 521.54-24.1 530.39-24.65 530.09-18.5 530.29-18.5Q531.14-21.2 533.42-23.1 535.69-25 537.89-25ZM551.04-19.15L551.49-19.1Q553.74-24.9 560.54-24.9L560.54-24.9Q563.94-24.9 566.04-22.88 568.14-20.85 568.14-17.1L568.14-17.1Q568.14-10.65 567.74-1.45L567.74-1.45 571.19-1.2 571.19 0 560.14 0 560.14-1.2 562.84-1.4Q563.24-12.7 563.24-14.35 563.24-16 563.19-16.88 563.14-17.75 562.92-19.03 562.69-20.3 562.24-21.05L562.24-21.05Q561.14-22.9 558.79-22.9L558.79-22.9Q555.59-22.9 553.54-20.25 551.49-17.6 551.49-14.5L551.49-14.5 551.49-1.45 555.24-1.2 555.24 0 543.29 0 543.29-1.2 546.59-1.45 546.59-22.6 542.34-22.8 542.34-23.95 551.29-24.55 551.04-19.15ZM586.09 0.55Q580.94 0.55 577.79-2.95 574.64-6.45 574.64-12.2 574.64-17.95 577.96-21.45 581.29-24.95 586.34-24.95 591.39-24.95 593.89-22.68 596.39-20.4 596.39-16.35L596.39-16.35Q596.39-15.15 596.19-13.95L596.19-13.95 580.04-13.95 580.04-12.2Q580.04-6.6 581.64-3.73 583.24-0.85 586.89-0.85L586.89-0.85Q592.04-0.85 594.84-5.35L594.84-5.35Q595.94-5 595.94-4.3L595.94-4.3Q595.94-3.05 593.64-1.4L593.64-1.4Q592.54-0.6 590.54-0.03 588.54 0.55 586.09 0.55L586.09 0.55ZM591.64-17.4L591.64-17.4Q591.64-19.7 590.69-21.35L590.69-21.35Q589.39-23.55 586.49-23.55L586.49-23.55Q581.09-23.55 580.19-15.75L580.19-15.75 591.54-15.75Q591.64-16.6 591.64-17.4ZM607.26 10.2Q606.24 11.35 604.69 12.28 603.14 13.2 601.56 13.2 599.99 13.2 599.11 12.38 598.24 11.55 598.24 10.18 598.24 8.8 599.49 7.4L599.49 7.4Q600.89 9 602.64 9L602.64 9Q605.14 9 606.94 6.83 608.74 4.65 610.44 0L610.44 0 600.84-22.8 598.29-23.1 598.29-24.4 608.94-24.4 608.94-23.1 605.49-22.8 612.64-5.35 618.79-22.15 614.79-23.1 614.79-24.4 624.39-24.4 624.39-23.1 620.89-22.15 612.44 0Q611.54 2.3 611.04 3.55 610.54 4.8 609.41 6.93 608.29 9.05 607.26 10.2Z" opacity="1" transform="matrix(1,0,0,1,0,0)" fill="#f4a424" class="undefined-text-1" data-fill-palette-color="secondary" id="text-1"></path></svg></g></svg></g></svg></g></svg></g><g transform="matrix(1,0,0,1,423.34819776154916,0)"><svg viewBox="0 0 98.30390046958036 111.04776228707372" height="111.04776228707372" width="98.30390046958036"><g><svg xmlns="http://www.w3.org/2000/svg" xmlns:xlink="http://www.w3.org/1999/xlink" version="1.1" x="0" y="0" viewBox="6.891 1.1219999999999999 85.824 96.95" enable-background="new 0 0 100 100" xml:space="preserve" height="111.04776228707372" width="98.30390046958036" class="icon-icon-0" data-fill-palette-color="accent" id="icon-0"><g fill="#f4a424" data-fill-palette-color="accent"><path fill="#f4a424" d="M64.008 72.381c4.002-3.149 12.23-11.582 15.089-21.179-6.511-8.01-33.912-42.187-40.238-50.08C38.212 8.613 31.63 24.377 20.21 29.646c-5.247 2.56-10.477 4.156-12.467 4.721l39.077 47.32C51.235 80.263 59.958 75.56 64.008 72.381z" data-fill-palette-color="accent"></path><g fill="#f4a424" data-fill-palette-color="accent"><g fill="#f4a424" data-fill-palette-color="accent"><path fill="#f4a424" d="M90.405 75.352c-6.5 3.781-13.381 7.281-20.674 9.929-8.632 3.134-19.05 6.681-22.386 7.664v5.127l43.046-15.479L90.405 75.352z" data-fill-palette-color="accent"></path><polygon fill="#f4a424" points="6.891,35.865 6.891,50.088 45.703,97.945 45.736,82.902    " data-fill-palette-color="accent"></polygon></g><path fill="#f4a424" d="M88.717 70.42c-5.018 3.936-11.386 7.921-18.278 11.363-6.521 3.266-20.879 7.668-23.093 8.339v1.144c3.686-1.09 13.036-3.898 21.237-7.013 9.104-3.457 22.12-11.628 22.12-11.628L88.717 70.42z" data-fill-palette-color="accent"></path></g><path fill="#f4a424" d="M80.877 50.835l-0.114 0.403c-2.851 10.142-11.25 18.858-15.762 22.409-4.225 3.319-13.009 8.054-17.655 9.561v2.168c6.53-2.034 15.656-6.36 20.721-9.922 8.699-6.128 17.195-14.63 22.419-22.404l0.047 0.036C84.648 46.442 51.938 9.001 49.818 6.309c-0.719 1.357-1.368 2.265-2.422 2.887 10.832 13.508 28.598 35.647 33.217 41.314L80.877 50.835z" data-fill-palette-color="accent"></path><path fill="#f4a424" d="M87.321 59.925c0 0-11.588 12.1-18.328 16.846-5.696 4.008-14.5 7.942-21.647 10.168v1.498c0.692-0.212 1.838-0.566 3.268-1.021 5.266-1.677 14.41-4.722 19.106-7.072 9.305-4.648 17.623-10.274 22.834-15.386 0.054-0.053 0.106-0.106 0.161-0.16L87.321 59.925z" data-fill-palette-color="accent"></path></g></svg></g></svg></g></svg></g><defs></defs></svg><rect width="395.52" height="84.19713270341906" fill="none" stroke="none" visibility="hidden"></rect></g></svg></g></svg>