<svg xmlns="http://www.w3.org/2000/svg" version="1.1" xmlns:xlink="http://www.w3.org/1999/xlink" xmlns:svgjs="http://svgjs.dev/svgjs" width="2000" height="1500" viewBox="0 0 2000 1500"><rect width="2000" height="1500" fill="#ffffff"></rect><g transform="matrix(0.75,0,0,0.75,249.090909090909,658.2956564205131)"><svg viewBox="0 0 396 49" data-background-color="#ffffff" preserveAspectRatio="xMidYMid meet" height="247" width="2000" xmlns="http://www.w3.org/2000/svg" xmlns:xlink="http://www.w3.org/1999/xlink"><g id="tight-bounds" transform="matrix(1,0,0,1,0.2400000000000091,-0.24352045670789835)"><svg viewBox="0 0 395.52 49.48704091341579" height="49.48704091341579" width="395.52"><g><svg viewBox="0 0 395.52 49.48704091341579" height="49.48704091341579" width="395.52"><g><svg viewBox="0 0 395.52 49.48704091341579" height="49.48704091341579" width="395.52"><g><svg viewBox="0 0 395.52 49.48704091341579" height="49.48704091341579" width="395.52"><g><svg viewBox="0 0 395.52 49.48704091341579" height="49.48704091341579" width="395.52"><g transform="matrix(1,0,0,1,0,0)"><svg width="395.52" viewBox="2.8 -38.6 309.93 39.45" height="49.48704091341579" data-palette-color="#2b2b2b"><g class="undefined-text-0" data-fill-palette-color="primary" id="text-0"><path d="M20.9 0.85Q15.05 0.85 10.98-1.73 6.9-4.3 4.85-8.78 2.8-13.25 2.8-18.9L2.8-18.9Q2.8-24.45 4.85-28.9 6.9-33.35 10.98-35.98 15.05-38.6 20.9-38.6L20.9-38.6Q26.7-38.6 30.75-35.98 34.8-33.35 36.88-28.88 38.95-24.4 38.95-18.9L38.95-18.9Q38.95-13.25 36.9-8.78 34.85-4.3 30.78-1.73 26.7 0.85 20.9 0.85L20.9 0.85ZM20.9-3.4Q25-3.4 27.95-5.45 30.9-7.5 32.43-11.05 33.95-14.6 33.95-19.05L33.95-19.05Q33.95-23.35 32.4-26.83 30.85-30.3 27.9-32.33 24.95-34.35 20.9-34.35L20.9-34.35Q16.7-34.35 13.75-32.3 10.8-30.25 9.3-26.75 7.8-23.25 7.8-18.9L7.8-18.9Q7.8-14.45 9.3-10.95 10.8-7.45 13.75-5.43 16.7-3.4 20.9-3.4L20.9-3.4ZM60.4-37.9Q72.8-37.9 72.8-26.6L72.8-26.6Q72.8-21.1 69.7-18.23 66.6-15.35 60.4-15.35L60.4-15.35 52-15.35 52 0 47.15 0 47.15-37.9 60.4-37.9ZM67.85-26.6Q67.85-30.3 66-31.98 64.15-33.65 60.4-33.65L60.4-33.65 52-33.65 52-19.65 60.4-19.65Q67.8-19.65 67.85-26.6L67.85-26.6ZM85-4.2L103.35-4.2 103.35 0 80.15 0 80.15-37.9 103.1-37.9 103.1-33.7 85-33.7 85-21.15 100.6-21.15 100.6-16.95 85-16.95 85-4.2ZM135.64-37.9L140.49-37.9 140.49 0 135.19 0 116.54-29.75 116.54 0 111.69 0 111.69-37.9 116.94-37.9 135.64-8.15 135.64-37.9Z" fill="#2b2b2b" data-fill-palette-color="primary"></path><path d="M167.79 0L158.04-16.05 150.69-16.05 150.69 0 145.84 0 145.84-37.9 159.09-37.9Q171.49-37.9 171.49-26.9L171.49-26.9Q171.49-22.55 169.42-19.88 167.34-17.2 163.19-16.4L163.19-16.4 173.34 0 167.79 0ZM150.69-33.65L150.69-20.3 159.09-20.3Q166.49-20.3 166.54-26.9L166.54-26.9Q166.54-30.4 164.69-32.02 162.84-33.65 159.09-33.65L159.09-33.65 150.69-33.65ZM185.99-4.2L204.34-4.2 204.34 0 181.14 0 181.14-37.9 204.09-37.9 204.09-33.7 185.99-33.7 185.99-21.15 201.59-21.15 201.59-16.95 185.99-16.95 185.99-4.2ZM237.64 0L233.54-11.05 217.74-11.05 213.69 0 208.69 0 222.94-38.35 228.34-38.35 242.64 0 237.64 0ZM219.39-15.4L231.89-15.4 225.64-32.3 219.39-15.4ZM261.88-37.9Q271.23-37.9 276.01-33.08 280.78-28.25 280.78-18.9L280.78-18.9Q280.78-9.5 276.03-4.75 271.28 0 261.88 0L261.88 0 249.28 0 249.28-37.9 261.88-37.9ZM275.78-19.05Q275.78-26.55 272.28-30.1 268.78-33.65 261.88-33.65L261.88-33.65 254.13-33.65 254.13-4.25 261.88-4.25Q268.83-4.25 272.31-7.8 275.78-11.35 275.78-19.05L275.78-19.05ZM299.83 0.85Q292.58 0.85 286.88-1.85L286.88-1.85 286.88-6.45Q292.63-3.4 299.83-3.4L299.83-3.4Q303.98-3.4 305.91-5.15 307.83-6.9 307.83-9.75L307.83-9.75Q307.83-12.45 306.06-13.8 304.28-15.15 300.83-16.15L300.83-16.15 297.43-17.1Q294.53-17.95 292.48-19.05 290.43-20.15 289.06-22.23 287.68-24.3 287.68-27.65L287.68-27.65Q287.68-33 290.81-35.8 293.93-38.6 299.68-38.6L299.68-38.6Q303.03-38.6 305.58-37.98 308.13-37.35 310.88-36.1L310.88-36.1 310.88-31.6Q305.78-34.35 299.68-34.35L299.68-34.35Q295.98-34.35 294.28-32.63 292.58-30.9 292.58-27.9L292.58-27.9Q292.63-25.15 294.26-23.85 295.88-22.55 299.33-21.55L299.33-21.55 302.78-20.6Q305.83-19.75 307.96-18.63 310.08-17.5 311.41-15.38 312.73-13.25 312.73-9.85L312.73-9.85Q312.68-4.9 309.26-2.02 305.83 0.85 299.83 0.85L299.83 0.85Z" fill="#f4a424" data-fill-palette-color="secondary"></path></g></svg></g></svg></g></svg></g></svg></g></svg></g><defs></defs></svg><rect width="395.52" height="49.48704091341579" fill="none" stroke="none" visibility="hidden"></rect></g></svg></g></svg>